<?xml version="1.0" standalone="no"?>
<svg xmlns:xlink="http://www.w3.org/1999/xlink" id="wave" style="transform:rotate(180deg); transition: 0.3s" viewBox="0 0 1440 490" version="1.1" xmlns="http://www.w3.org/2000/svg"><defs><linearGradient id="sw-gradient-0" x1="0" x2="0" y1="1" y2="0"><stop stop-color="rgba(255, 98.798, 90.069, 1)" offset="0%"/><stop stop-color="rgba(255, 75, 75, 1)" offset="100%"/></linearGradient></defs><path style="transform:translate(0, 0px); opacity:1" fill="url(#sw-gradient-0)" d="M0,441L48,432.8C96,425,192,408,288,400.2C384,392,480,392,576,351.2C672,310,768,229,864,179.7C960,131,1056,114,1152,138.8C1248,163,1344,229,1440,220.5C1536,212,1632,131,1728,122.5C1824,114,1920,180,2016,179.7C2112,180,2208,114,2304,81.7C2400,49,2496,49,2592,81.7C2688,114,2784,180,2880,187.8C2976,196,3072,147,3168,114.3C3264,82,3360,65,3456,81.7C3552,98,3648,147,3744,187.8C3840,229,3936,261,4032,253.2C4128,245,4224,196,4320,196C4416,196,4512,245,4608,245C4704,245,4800,196,4896,204.2C4992,212,5088,278,5184,269.5C5280,261,5376,180,5472,138.8C5568,98,5664,98,5760,155.2C5856,212,5952,327,6048,334.8C6144,343,6240,245,6336,220.5C6432,196,6528,245,6624,285.8C6720,327,6816,359,6864,375.7L6912,392L6912,490L6864,490C6816,490,6720,490,6624,490C6528,490,6432,490,6336,490C6240,490,6144,490,6048,490C5952,490,5856,490,5760,490C5664,490,5568,490,5472,490C5376,490,5280,490,5184,490C5088,490,4992,490,4896,490C4800,490,4704,490,4608,490C4512,490,4416,490,4320,490C4224,490,4128,490,4032,490C3936,490,3840,490,3744,490C3648,490,3552,490,3456,490C3360,490,3264,490,3168,490C3072,490,2976,490,2880,490C2784,490,2688,490,2592,490C2496,490,2400,490,2304,490C2208,490,2112,490,2016,490C1920,490,1824,490,1728,490C1632,490,1536,490,1440,490C1344,490,1248,490,1152,490C1056,490,960,490,864,490C768,490,672,490,576,490C480,490,384,490,288,490C192,490,96,490,48,490L0,490Z"/></svg>