<?xml version="1.0" standalone="no"?>
<svg xmlns:xlink="http://www.w3.org/1999/xlink" id="wave" style="transform:rotate(180deg); transition: 0.3s" viewBox="0 0 1440 490" version="1.1" xmlns="http://www.w3.org/2000/svg"><defs><linearGradient id="sw-gradient-0" x1="0" x2="0" y1="1" y2="0"><stop stop-color="rgba(248.49, 75.143, 75.143, 1)" offset="0%"/><stop stop-color="rgba(255, 75, 75, 1)" offset="100%"/></linearGradient></defs><path style="transform:translate(0, 0px); opacity:1" fill="url(#sw-gradient-0)" d="M0,294L60,310.3C120,327,240,359,360,318.5C480,278,600,163,720,122.5C840,82,960,114,1080,163.3C1200,212,1320,278,1440,310.3C1560,343,1680,343,1800,294C1920,245,2040,147,2160,89.8C2280,33,2400,16,2520,24.5C2640,33,2760,65,2880,130.7C3000,196,3120,294,3240,334.8C3360,376,3480,359,3600,318.5C3720,278,3840,212,3960,155.2C4080,98,4200,49,4320,65.3C4440,82,4560,163,4680,187.8C4800,212,4920,180,5040,204.2C5160,229,5280,310,5400,326.7C5520,343,5640,294,5760,236.8C5880,180,6000,114,6120,73.5C6240,33,6360,16,6480,8.2C6600,0,6720,0,6840,16.3C6960,33,7080,65,7200,65.3C7320,65,7440,33,7560,73.5C7680,114,7800,229,7920,236.8C8040,245,8160,147,8280,163.3C8400,180,8520,310,8580,375.7L8640,441L8640,490L8580,490C8520,490,8400,490,8280,490C8160,490,8040,490,7920,490C7800,490,7680,490,7560,490C7440,490,7320,490,7200,490C7080,490,6960,490,6840,490C6720,490,6600,490,6480,490C6360,490,6240,490,6120,490C6000,490,5880,490,5760,490C5640,490,5520,490,5400,490C5280,490,5160,490,5040,490C4920,490,4800,490,4680,490C4560,490,4440,490,4320,490C4200,490,4080,490,3960,490C3840,490,3720,490,3600,490C3480,490,3360,490,3240,490C3120,490,3000,490,2880,490C2760,490,2640,490,2520,490C2400,490,2280,490,2160,490C2040,490,1920,490,1800,490C1680,490,1560,490,1440,490C1320,490,1200,490,1080,490C960,490,840,490,720,490C600,490,480,490,360,490C240,490,120,490,60,490L0,490Z"/><defs><linearGradient id="sw-gradient-1" x1="0" x2="0" y1="1" y2="0"><stop stop-color="rgba(255, 131.819, 131.819, 1)" offset="0%"/><stop stop-color="rgba(255, 75, 75, 1)" offset="100%"/></linearGradient></defs><path style="transform:translate(0, 50px); opacity:0.9" fill="url(#sw-gradient-1)" d="M0,441L60,441C120,441,240,441,360,408.3C480,376,600,310,720,285.8C840,261,960,278,1080,253.2C1200,229,1320,163,1440,171.5C1560,180,1680,261,1800,277.7C1920,294,2040,245,2160,220.5C2280,196,2400,196,2520,187.8C2640,180,2760,163,2880,130.7C3000,98,3120,49,3240,49C3360,49,3480,98,3600,163.3C3720,229,3840,310,3960,310.3C4080,310,4200,229,4320,220.5C4440,212,4560,278,4680,277.7C4800,278,4920,212,5040,220.5C5160,229,5280,310,5400,326.7C5520,343,5640,294,5760,228.7C5880,163,6000,82,6120,98C6240,114,6360,229,6480,302.2C6600,376,6720,408,6840,351.2C6960,294,7080,147,7200,147C7320,147,7440,294,7560,310.3C7680,327,7800,212,7920,179.7C8040,147,8160,196,8280,196C8400,196,8520,147,8580,122.5L8640,98L8640,490L8580,490C8520,490,8400,490,8280,490C8160,490,8040,490,7920,490C7800,490,7680,490,7560,490C7440,490,7320,490,7200,490C7080,490,6960,490,6840,490C6720,490,6600,490,6480,490C6360,490,6240,490,6120,490C6000,490,5880,490,5760,490C5640,490,5520,490,5400,490C5280,490,5160,490,5040,490C4920,490,4800,490,4680,490C4560,490,4440,490,4320,490C4200,490,4080,490,3960,490C3840,490,3720,490,3600,490C3480,490,3360,490,3240,490C3120,490,3000,490,2880,490C2760,490,2640,490,2520,490C2400,490,2280,490,2160,490C2040,490,1920,490,1800,490C1680,490,1560,490,1440,490C1320,490,1200,490,1080,490C960,490,840,490,720,490C600,490,480,490,360,490C240,490,120,490,60,490L0,490Z"/></svg>